<?xml version="1.0" encoding="UTF-8"?>
<svg xmlns="http://www.w3.org/2000/svg" viewBox="0 0 100 100">
  <g id="c" data-name="field">
    <g>
      <path id="d" data-name="field_sw" d="M33.81,82.2c2.77-.76,5.5-1.32,8.19-1.68v19.48H0c10.44-7.37,21.36-14.58,33.81-17.8Z" fill="#6c0"/>
      <path id="e" data-name="field_se" d="M58,100v-19.42c15.09,2.09,28.96,9.75,42,19.42h-42Z" fill="#6c0"/>
    </g>
    
  </g>
  <g id="h" data-name="road">
    <path id="i" data-name="road_s" d="M58,80.58v19.42h-16v-19.48c2.63-.35,5.23-.52,7.79-.52,2.78,0,5.51.2,8.21.58Z" fill="#e6e6e6"/>
    
  </g>
  <g id="k" data-name="roadBorder">
    <line x1="57.5" y1="100" x2="57.5" y2="80.5" fill="none" stroke="#b3b3b3" stroke-miterlimit="10"/>
    <line x1="42.5" y1="100" x2="42.5" y2="80.5" fill="none" stroke="#b3b3b3" stroke-miterlimit="10"/>
  </g>
  <g id="l" data-name="city">
    <path id="m" data-name="city_new" d="M100,0v100c-19.72-14.62-41.34-24.64-66.19-17.8-12.45,3.22-23.37,10.43-33.81,17.8V0h100Z" fill="#960"/>
    
  </g>
  <g id="o" data-name="cityBorder">
    <path d="M0,100c10.44-7.37,21.36-14.58,33.81-17.8,2.77-.76,5.5-1.32,8.19-1.68,2.63-.35,5.23-.52,7.79-.52,2.78,0,5.51.2,8.21.58,15.09,2.09,28.96,9.75,42,19.42" fill="none" stroke="#d1bc8d" stroke-miterlimit="10" stroke-width="2"/>
  </g>
</svg>